<svg width="40" height="40" viewBox="0 0 40 40" fill="none" xmlns="http://www.w3.org/2000/svg">
<circle cx="20" cy="20" r="19" stroke="#839FDB" stroke-width="2"/>
<circle cx="20" cy="20" r="19" stroke="#365CEA" stroke-width="2"/>
<path fill-rule="evenodd" clip-rule="evenodd" d="M14.1313 15.1313C14.473 14.7896 15.027 14.7896 15.3687 15.1313L20 19.7626L24.6313 15.1313C24.973 14.7896 25.527 14.7896 25.8687 15.1313C26.2104 15.473 26.2104 16.027 25.8687 16.3687L21.2374 21L25.8687 25.6313C26.2104 25.973 26.2104 26.527 25.8687 26.8687C25.527 27.2104 24.973 27.2104 24.6313 26.8687L20 22.2374L15.3687 26.8687C15.027 27.2104 14.473 27.2104 14.1313 26.8687C13.7896 26.527 13.7896 25.973 14.1313 25.6313L18.7626 21L14.1313 16.3687C13.7896 16.027 13.7896 15.473 14.1313 15.1313Z" fill="#365CEA" stroke="#365CEA" stroke-width="0.5" stroke-linecap="round" stroke-linejoin="round"/>
</svg>
